# xmcd CD database file generated by Grip 2.5
# 
# Track frame offsets:
#       182
#       19357
#       37827
#       54755
#       71075
#       82037
#       95922
#       113802
#       131137
#       148720
#       165347
#       179190
#       195115
#       212250
# 
# Disc length: 3024 seconds
# 
# Revision: 3
# Processed by: cddbd v1.4b41PL1 Copyright (c) Steve Scherf et al.
# Submitted via: Grip 2.5
# 
DISCID=c10bce0e
DTITLE=Maita Vende Cá - No hay luz sin día
DYEAR=1900
DGENRE=
TTITLE0=Noche en vela
TTITLE1=No hay luz sin día
TTITLE2=Ya no lloro
TTITLE3=Peñón de Gibraltar
TTITLE4=Juaqui 2
TTITLE5=Bulerías de Luquita (Instrumental)
TTITLE6=Barco de papel
TTITLE7=Gloria bendita
TTITLE8=Ojos negros, luna llena
TTITLE9=Regálame tu samba
TTITLE10=La bonita
TTITLE11=Quiero seguir viviendo
TTITLE12=Como siempre
TTITLE13=Bulería del papagayo
EXTD=
EXTT0=
EXTT1=
EXTT2=
EXTT3=
EXTT4=
EXTT5=
EXTT6=
EXTT7=
EXTT8=
EXTT9=
EXTT10=
EXTT11=
EXTT12=
EXTT13=
PLAYORDER=
